<svg width="30" height="30" viewBox="0 0 30 30" fill="none" xmlns="http://www.w3.org/2000/svg">
<path fill-rule="evenodd" clip-rule="evenodd" d="M0 15C0 6.71573 6.71573 0 15 0C18.9782 0 22.7936 1.58035 25.6066 4.3934C28.4196 7.20644 30 11.0218 30 15C30 23.2843 23.2843 30 15 30C6.71573 30 0 23.2843 0 15ZM15 16.5H21C21.8284 16.5 22.5 15.8284 22.5 15C22.5 14.1716 21.8284 13.5 21 13.5H16.5V9C16.5 8.17157 15.8284 7.5 15 7.5C14.1716 7.5 13.5 8.17157 13.5 9V15C13.5 15.8284 14.1716 16.5 15 16.5Z" fill="#00AB55"/>
</svg>
