<svg width="16" height="15" viewBox="0 0 16 15" fill="none" xmlns="http://www.w3.org/2000/svg">
<path d="M12.1701 14.7502C12.0501 14.7506 11.9318 14.7223 11.8251 14.6677L8.00009 12.6652L4.17509 14.6677C3.92169 14.8009 3.61453 14.7783 3.38341 14.6093C3.15228 14.4403 3.03751 14.1545 3.08759 13.8727L3.83759 9.65015L0.747585 6.65015C0.551128 6.4541 0.478999 6.16559 0.560085 5.90015C0.648768 5.62822 0.884403 5.4304 1.16759 5.39015L5.44259 4.76765L7.32509 0.920153C7.4504 0.66141 7.71259 0.49707 8.00009 0.49707C8.28758 0.49707 8.54977 0.66141 8.67509 0.920153L10.5801 4.76015L14.8551 5.38265C15.1383 5.4229 15.3739 5.62072 15.4626 5.89265C15.5437 6.15809 15.4715 6.4466 15.2751 6.64265L12.1851 9.64265L12.9351 13.8652C12.9898 14.1523 12.8727 14.445 12.6351 14.6152C12.4993 14.7103 12.3357 14.7578 12.1701 14.7502Z" fill="#FFC107"/>
</svg>
