<svg width="36" height="24" viewBox="0 0 36 24" fill="none" xmlns="http://www.w3.org/2000/svg">
<rect x="12.5703" y="3.26953" width="10.21" height="16.68" fill="#F26122"/>
<path d="M13.6687 11.6102C13.6518 8.3637 15.1264 5.28922 17.6687 3.27017C13.3189 -0.15054 7.07064 0.346185 3.31599 4.41117C-0.438663 8.47616 -0.438663 14.7442 3.31599 18.8092C7.07064 22.8741 13.3189 23.3709 17.6687 19.9502C15.1264 17.9311 13.6518 14.8566 13.6687 11.6102Z" fill="#EA1D25"/>
<path d="M34.828 11.6111C34.8254 15.6704 32.5068 19.3725 28.8558 21.1469C25.2049 22.9213 20.8614 22.4571 17.668 19.9511C22.268 16.329 23.0646 9.66537 19.448 5.06107C18.9295 4.39434 18.3318 3.79325 17.668 3.27107C20.8614 0.765064 25.2049 0.300813 28.8558 2.07524C32.5068 3.84967 34.8254 7.55173 34.828 11.6111Z" fill="#F69E1E"/>
</svg>
