<svg width="36" height="24" viewBox="0 0 36 24" fill="none" xmlns="http://www.w3.org/2000/svg">
<rect width="36" height="24" rx="4" fill="white"/>
<path d="M14.3405 21.3197L14.6905 19.1197H13.9105H10.2305L12.7905 2.85969C12.7973 2.80931 12.8222 2.76312 12.8605 2.72969C12.9007 2.69862 12.9497 2.68112 13.0005 2.67969H19.2105C21.2805 2.67969 22.7005 3.10969 23.4505 3.95969C23.7823 4.31622 24.0135 4.75449 24.1205 5.22969C24.2371 5.80719 24.2371 6.40218 24.1205 6.97969V7.47969L24.4705 7.67969C24.7369 7.81249 24.9774 7.992 25.1805 8.20969C25.4861 8.57868 25.6835 9.02524 25.7505 9.49969C25.8254 10.1199 25.7984 10.7482 25.6705 11.3597C25.5386 12.1025 25.278 12.8165 24.9005 13.4697C24.5954 13.9933 24.183 14.4466 23.6905 14.7997C23.1947 15.1377 22.6428 15.3849 22.0605 15.5297C21.4068 15.6946 20.7346 15.7752 20.0605 15.7697H19.5705C19.227 15.7697 18.8945 15.89 18.6305 16.1097C18.3651 16.3333 18.1908 16.6463 18.1405 16.9897V17.1897L17.5305 21.0697V21.2197C17.5377 21.2459 17.5377 21.2735 17.5305 21.2997H17.4705L14.3405 21.3197Z" fill="#253D80"/>
<path d="M24.8002 7.08008L24.7402 7.45008C23.9202 11.6501 21.1102 13.1101 17.5302 13.1101H15.7102C15.2724 13.1095 14.8991 13.4276 14.8302 13.8601L13.9002 19.7801L13.6302 21.4601C13.61 21.5946 13.649 21.7313 13.7372 21.8349C13.8254 21.9384 13.9542 21.9987 14.0902 22.0001H17.3302C17.7144 21.9997 18.0411 21.7197 18.1002 21.3401V21.1801L18.7102 17.3101V17.1001C18.7648 16.722 19.0883 16.4411 19.4702 16.4401H20.0002C23.1302 16.4401 25.5902 15.1701 26.3002 11.4401C26.6844 10.1652 26.4474 8.78395 25.6602 7.71008C25.4105 7.45389 25.1198 7.24099 24.8002 7.08008V7.08008Z" fill="#189BD7"/>
<path d="M23.9384 6.73984L23.5584 6.63984L23.1384 6.55984C22.6089 6.48066 22.0738 6.44387 21.5384 6.44984H16.6584C16.5444 6.44672 16.4313 6.47071 16.3284 6.51984C16.0966 6.6284 15.9349 6.84642 15.8984 7.09984L14.8984 13.6698V13.8598C14.9673 13.4274 15.3405 13.1093 15.7784 13.1098H17.5984C21.1784 13.1098 23.9884 11.6498 24.8084 7.44984L24.8684 7.07984C24.653 6.96854 24.429 6.87489 24.1984 6.79984L23.9384 6.73984Z" fill="#242E65"/>
<path d="M15.8994 7.1C15.9359 6.84658 16.0975 6.62856 16.3294 6.52C16.4323 6.47086 16.5454 6.44687 16.6594 6.45H21.5394C22.0748 6.44403 22.6098 6.48081 23.1394 6.56L23.5594 6.64L23.9394 6.74L24.1294 6.8C24.3599 6.87505 24.584 6.96869 24.7994 7.08C25.1245 5.83063 24.8265 4.50118 23.9994 3.51C22.9994 2.45 21.3594 2 19.2194 2H12.9994C12.5615 1.99947 12.1883 2.31756 12.1194 2.75L9.5294 19.16C9.50622 19.3148 9.5513 19.472 9.65298 19.5909C9.75465 19.7098 9.90293 19.7788 10.0594 19.78H13.8994L14.8994 13.67L15.8994 7.1Z" fill="#253D80"/>
</svg>
